<svg xmlns="http://www.w3.org/2000/svg" viewBox="0 0 1200 900">
  <defs>
    <linearGradient id="bg" x1="0" y1="0" x2="1" y2="1">
      <stop offset="0" stop-color="#c4ab8d"/>
      <stop offset=".5" stop-color="#86664b"/>
      <stop offset="1" stop-color="#3b3028"/>
    </linearGradient>
    <radialGradient id="warm" cx=".54" cy=".4" r=".55">
      <stop offset="0" stop-color="#f2c67b" stop-opacity=".35"/>
      <stop offset="1" stop-color="#f2c67b" stop-opacity="0"/>
    </radialGradient>
  </defs>
  <rect width="1200" height="900" fill="url(#bg)"/>
  <rect width="1200" height="900" fill="url(#warm)"/>
  <rect x="220" y="300" width="560" height="250" rx="6" fill="#dfd0bd"/>
  <rect x="250" y="326" width="500" height="190" rx="6" fill="#eadfce"/>
  <rect x="265" y="326" width="44" height="220" rx="6" fill="#3b2e28"/>
  <rect x="706" y="326" width="44" height="220" rx="6" fill="#3b2e28"/>
  <path d="M250 420h500" stroke="#c7b59e" stroke-width="8"/>
  <path d="M290 280h160v36H290z" fill="#efe7d8"/>
  <path d="M290 280c60 20 116 32 160 36v14H290Z" fill="#b79a72"/>
  <path d="M452 314h180v54H452z" fill="#c8b39a"/>
  <path d="M632 314h80v54H632z" fill="#b49574"/>
  <circle cx="140" cy="420" r="20" fill="#f4d48f"/><rect x="132" y="378" width="16" height="40" rx="8" fill="#f1eadf"/>
  <circle cx="160" cy="404" r="14" fill="#f4d48f"/><rect x="154" y="374" width="12" height="30" rx="6" fill="#f1eadf"/>
  <circle cx="1060" cy="430" r="20" fill="#f4d48f"/><rect x="1052" y="388" width="16" height="42" rx="8" fill="#f1eadf"/>
  <circle cx="1034" cy="446" r="16" fill="#f4d48f"/><rect x="1028" y="412" width="12" height="34" rx="6" fill="#f1eadf"/>
  <rect x="880" y="250" width="22" height="240" fill="#57463a"/>
  <path d="M892 228c52 12 92 50 112 126-88 8-142-18-180-78 16-28 34-40 68-48Z" fill="#657852"/>
  <path d="M888 254c-30 24-44 60-40 118 58 0 96-14 126-54-10-26-30-46-86-64Z" fill="#7b8e66"/>
  <path d="M214 602c80 0 142 24 186 74H40c30-44 86-74 174-74Z" fill="#6c5643" opacity=".4"/>
</svg>
