<svg xmlns="http://www.w3.org/2000/svg" viewBox="0 0 520 120" role="img" aria-labelledby="title desc">
  <title id="title">Maison Lumara</title>
  <desc id="desc">Logotipo floral y texto Maison Lumara Rituals of Wellness.</desc>
  <rect width="520" height="120" fill="none"/>
  <g transform="translate(16 14)" fill="none" stroke="#C7A66A" stroke-width="2.6" stroke-linecap="round" stroke-linejoin="round">
    <circle cx="44" cy="44" r="7" fill="#C7A66A" stroke="none"/>
    <path d="M44 8c6 7 9 15 9 24-7-3-13-8-18-16 2-4 5-6 9-8Z"/>
    <path d="M44 80c4-2 7-5 9-8-5-8-11-13-18-16 0 9 3 17 9 24Z"/>
    <path d="M8 44c7-6 15-9 24-9-3 7-8 13-16 18-4-2-6-5-8-9Z"/>
    <path d="M80 44c-2-4-5-7-8-9-8 5-13 11-16 18 9 0 17-3 24-9Z"/>
    <path d="M18 18c9 0 17 3 24 9-8 5-16 7-26 7-1-7 0-12 2-16Z"/>
    <path d="M70 18c2 4 3 9 2 16-10 0-18-2-26-7 7-6 15-9 24-9Z"/>
    <path d="M18 70c2-4 7-6 16-7 0 10-2 18-7 26-6-7-9-15-9-24Z"/>
    <path d="M70 70c0 9-3 17-9 24-5-8-7-16-7-26 9 1 14 3 16 7Z"/>
    <path d="M44 18 52 36 72 44 52 52 44 72 36 52 16 44 36 36Z"/>
  </g>
  <g fill="#C7A66A">
    <text x="130" y="48" font-size="36" font-family="'Cinzel', serif" letter-spacing="2.6">MAISON LUMARA</text>
    <text x="130" y="78" font-size="16" font-family="'Montserrat', sans-serif" letter-spacing="4">RITUALS OF WELLNESS</text>
  </g>
</svg>
