<svg xmlns="http://www.w3.org/2000/svg" viewBox="0 0 900 700">
  <defs>
    <linearGradient id="bg" x1="0" y1="0" x2="1" y2="1">
      <stop offset="0" stop-color="#241a15"/>
      <stop offset=".52" stop-color="#8b5f39"/>
      <stop offset="1" stop-color="#1b1410"/>
    </linearGradient>
  </defs>
  <rect width="900" height="700" fill="url(#bg)"/>
  <ellipse cx="460" cy="574" rx="264" ry="78" fill="#120f0c" opacity=".26"/>
  <path d="M286 444c26-114 88-180 196-210 98-26 182 6 246 112-28 72-86 134-164 162-112 38-222 10-278-64Z" fill="#bc7a50"/>
  <path d="M412 330c46-34 108-46 176-30 34 12 72 40 112 88-58 36-108 54-160 58-76 0-126-42-128-116Z" fill="#d8a177"/>
  <path d="M514 248c58 4 110 34 150 88-62 22-118 20-172-6-14-40-6-66 22-82Z" fill="#3b2418"/>
  <path d="M334 420c76 10 154 26 224 62-58 46-122 60-192 38-40-16-54-48-32-100Z" fill="#e2b18d"/>
  <path d="M648 260c22-26 52-38 94-34-10 34-28 62-56 82-24-10-36-28-38-48Z" fill="#f2eadf"/>
  <circle cx="724" cy="234" r="20" fill="#efe7da"/>
  <path d="M706 214c-10-22-8-40 6-58 18 16 28 32 30 52-10 8-22 10-36 6Z" fill="#efe7da"/>
</svg>
