<svg xmlns="http://www.w3.org/2000/svg" viewBox="0 0 1600 900">
  <defs>
    <linearGradient id="bg" x1="0" y1="0" x2="1" y2="1">
      <stop offset="0" stop-color="#1d1916"/>
      <stop offset=".46" stop-color="#714d2f"/>
      <stop offset="1" stop-color="#211812"/>
    </linearGradient>
  </defs>
  <rect width="1600" height="900" fill="url(#bg)"/>
  <rect x="430" y="354" width="760" height="250" rx="8" fill="#d8c8b4"/>
  <rect x="462" y="382" width="694" height="192" rx="8" fill="#e9dece"/>
  <rect x="490" y="300" width="108" height="70" fill="#efe6d8"/>
  <rect x="610" y="312" width="122" height="56" fill="#c6af90"/>
  <rect x="752" y="320" width="122" height="48" fill="#b89c79"/>
  <rect x="462" y="382" width="54" height="226" rx="8" fill="#30271f"/>
  <rect x="1102" y="382" width="54" height="226" rx="8" fill="#30271f"/>
  <g fill="#f2cf8a">
    <circle cx="262" cy="350" r="22"/><circle cx="300" cy="320" r="18"/><circle cx="338" cy="350" r="22"/>
    <circle cx="1320" cy="350" r="22"/><circle cx="1282" cy="320" r="18"/><circle cx="1358" cy="350" r="22"/>
  </g>
  <g fill="#f1eadf">
    <rect x="254" y="306" width="16" height="44" rx="8"/><rect x="292" y="284" width="14" height="36" rx="7"/><rect x="330" y="306" width="16" height="44" rx="8"/>
    <rect x="1274" y="284" width="14" height="36" rx="7"/><rect x="1312" y="306" width="16" height="44" rx="8"/><rect x="1350" y="306" width="16" height="44" rx="8"/>
  </g>
  <rect x="800" y="216" width="26" height="190" fill="#5c4a3d"/>
  <path d="M812 182c64 14 112 58 144 144-110 12-182-16-236-86 16-34 40-50 92-58Z" fill="#667955"/>
  <path d="M818 214c-36 24-58 62-62 124 74 8 132-10 176-54-14-34-54-64-114-70Z" fill="#80946d"/>
</svg>
