<svg xmlns="http://www.w3.org/2000/svg" viewBox="0 0 900 700">
  <defs>
    <linearGradient id="bg" x1="0" y1="0" x2="1" y2="1">
      <stop offset="0" stop-color="#d6c7b0"/>
      <stop offset=".4" stop-color="#a47d56"/>
      <stop offset="1" stop-color="#5b4639"/>
    </linearGradient>
  </defs>
  <rect width="900" height="700" fill="url(#bg)"/>
  <circle cx="560" cy="230" r="36" fill="#f3ce8b"/><rect x="546" y="168" width="28" height="62" rx="14" fill="#f1eadf"/>
  <circle cx="610" cy="246" r="22" fill="#f3ce8b"/><rect x="602" y="208" width="16" height="38" rx="8" fill="#f1eadf"/>
  <rect x="288" y="380" width="120" height="120" rx="18" fill="#43271a"/>
  <rect x="434" y="330" width="86" height="180" rx="24" fill="#60351f"/>
  <rect x="468" y="274" width="20" height="62" rx="10" fill="#31221a"/>
  <circle cx="348" cy="434" r="44" fill="#b56c22"/>
  <circle cx="348" cy="434" r="40" fill="#df9c51"/>
  <path d="M348 356c18 24 20 44 0 76-20-32-18-52 0-76Z" fill="#fff1bf"/>
  <rect x="274" y="500" width="310" height="30" rx="10" fill="#c1b49d"/>
  <path d="M610 258c52 18 88 54 102 120-82 4-134-18-168-70 10-22 30-40 66-50Z" fill="#5c7140"/>
</svg>
